# xmcd CD database file
#
# Track frame offsets:
#	150
#	19395
#	51135
#	73190
#	91872
#	109422
#	130350
#	147790
#	164170
#	179932
#	205317
#
# Disc length: 3109 seconds
#
# Revision: 6
# Processed by: cddbd v1.5.2PL0 Copyright (c) Steve Scherf et al.
# Submitted via: CDex 1.51
#
DISCID=b10c230b
DTITLE=Joe Ely - Letter to Laredo
DYEAR=1995
DGENRE=Country
TTITLE0=All Just To Get To You
TTITLE1=Gallo Del Cielo
TTITLE2=Run Preciosa
TTITLE3=Saint Valentine
TTITLE4=Ranches And Rivers
TTITLE5=Letter To Laredo
TTITLE6=I Saw It In You
TTITLE7=She Finally Spoke Spanish To Me
TTITLE8=I Ain't Been Here Long
TTITLE9=That Ain't Enough
TTITLE10=I'm A Thousand Miles From Home
EXTD=YEAR: 1995
EXTT0=
EXTT1=
EXTT2=
EXTT3=
EXTT4=
EXTT5=
EXTT6=
EXTT7=
EXTT8=
EXTT9=
EXTT10=
PLAYORDER=
